# xmcd
#
# Track frame offsets: 
#        150
#        25840
#        44272
#        63139
#        76834
#        99017
#        117741
#        132932
#        150358
#        171334
#        188079
#        209600
#
# Disc length: 3041 seconds
#
# Revision: 0
# Processed by: cddbd v1.5.2PL0 Copyright (c) Steve Scherf et al.
# Submitted via: ExactAudioCopy v0.99pb5
#
DISCID=950bdf0c
DTITLE=Lyle Lovett - Natural Forces (Promo) 
DYEAR=2009
DGENRE=Country
TTITLE0=Natural Forces
TTITLE1=Farmer Brown - Chicken Reel
TTITLE2=Pantry
TTITLE3=Empty Blie Shoes
TTITLE4=Whooping Crane
TTITLE5=Bayou Song
TTITLE6=Bohemia
TTITLE7=Don't You Think I Feel It Too
TTITLE8=Sun And Moon And Stars
TTITLE9=Loretta
TTITLE10=It's Rock And Roll
TTITLE11=Pantry (Acoustic Version)
EXTD=
EXTT0=
EXTT1=
EXTT2=
EXTT3=
EXTT4=
EXTT5=
EXTT6=
EXTT7=
EXTT8=
EXTT9=
EXTT10=
EXTT11=
PLAYORDER=
